Coordinates
version=1
nRows=14
nColumns=38
inDegrees=no

Units are S.I. units (second, meters, Newtons, ...)
If the header above contains a line with 'inDegrees', this indicates whether rotational values are in degrees (yes) or radians (no).

endheader
time	pelvis_tilt	pelvis_list	pelvis_rotation	pelvis_tx	pelvis_ty	pelvis_tz	hip_flexion_r	hip_adduction_r	hip_rotation_r	knee_angle_r	ankle_angle_r	subtalar_angle_r	mtp_angle_r	hip_flexion_l	hip_adduction_l	hip_rotation_l	knee_angle_l	ankle_angle_l	subtalar_angle_l	mtp_angle_l	lumbar_extension	lumbar_bending	lumbar_rotation	arm_flex_r	arm_add_r	arm_rot_r	elbow_flex_r	pro_sup_r	wrist_flex_r	wrist_dev_r	arm_flex_l	arm_add_l	arm_rot_l	elbow_flex_l	pro_sup_l	wrist_flex_l	wrist_dev_l
2.17	2.75801	1.31214	-1.24909	0.880192	1.51489	0.985364	0.24531	0.0133209	-0.0563514	0.800499	0.223484	0	0	-0.155401	-0.0812897	-0.321324	0.3058	0.154641	0	0	-0.377471	0.0977201	0.12569	0.265793	-0.403075	-0.0295773	1.23204	0.969022	0	0	0.206939	-0.259133	-0.131243	1.28224	1.03834	0	0
2.18	2.74702	1.31033	-1.2329	0.879423	1.52357	0.985549	0.255535	0.00875387	-0.0877388	0.77257	0.225633	0	0	-0.167813	-0.0836684	-0.317971	0.301199	0.161088	0	0	-0.377178	0.104157	0.120838	0.268563	-0.402833	-0.0285413	1.23208	0.969225	0	0	0.206259	-0.257862	-0.134822	1.28248	1.03979	0	0
2.19	2.73612	1.30934	-1.21757	0.878795	1.5321	0.985544	0.266328	0.00924946	-0.106503	0.744318	0.227054	0	0	-0.178572	-0.0861968	-0.315519	0.298431	0.168405	0	0	-0.376421	0.110088	0.116313	0.272061	-0.402505	-0.026548	1.2321	0.969531	0	0	0.205816	-0.25642	-0.139059	1.28261	1.04071	0	0
2.2	2.72612	1.308	-1.20278	0.878258	1.54061	0.985473	0.276253	0.00978595	-0.125463	0.716013	0.228416	0	0	-0.189365	-0.0890142	-0.313128	0.296251	0.175916	0	0	-0.376106	0.115944	0.111567	0.276539	-0.40205	-0.0239011	1.23155	0.969519	0	0	0.205667	-0.255285	-0.143026	1.28266	1.04125	0	0
2.21	2.71739	1.3063	-1.18943	0.877831	1.54912	0.985331	0.285289	0.0103224	-0.144333	0.688136	0.230625	0	0	-0.200684	-0.0916759	-0.310679	0.293961	0.183151	0	0	-0.376319	0.121507	0.107524	0.282155	-0.40186	-0.0220395	1.2302	0.968033	0	0	0.205866	-0.254553	-0.145527	1.2828	1.04148	0	0
2.22	2.70957	1.30482	-1.17784	0.877577	1.55763	0.985096	0.29394	0.0111896	-0.162159	0.66022	0.234199	0	0	-0.211938	-0.0939492	-0.308762	0.29139	0.189814	0	0	-0.376559	0.126417	0.104959	0.285203	-0.401598	-0.0216145	1.23102	0.966497	0	0	0.206391	-0.254217	-0.145951	1.28304	1.04093	0	0
2.23	2.70107	1.30233	-1.16475	0.877358	1.56619	0.984871	0.300232	0.012732	-0.181857	0.630874	0.238453	0	0	-0.224195	-0.0970689	-0.305432	0.28837	0.196408	0	0	-0.377647	0.132217	0.102123	0.289258	-0.401136	-0.022055	1.23039	0.978352	0	0	0.207509	-0.253405	-0.147347	1.28244	1.05075	0	0
2.24	2.69198	1.30018	-1.15172	0.877293	1.57483	0.984513	0.306072	0.0149909	-0.200651	0.600823	0.243185	0	0	-0.235966	-0.100563	-0.30341	0.286173	0.203556	0	0	-0.378145	0.137799	0.0999651	0.290412	-0.400032	-0.0238859	1.23255	0.975716	0	0	0.209033	-0.25298	-0.14807	1.2813	1.04844	0	0
2.25	2.68289	1.29851	-1.1395	0.877336	1.58355	0.984031	0.311419	0.0178194	-0.217556	0.570158	0.247531	0	0	-0.247322	-0.103869	-0.301971	0.284396	0.21086	0	0	-0.378	0.143111	0.09838	0.29271	-0.399432	-0.024286	1.23332	0.976974	0	0	0.21059	-0.252215	-0.149514	1.27972	1.04713	0	0
2.26	2.67377	1.29469	-1.12738	0.87729	1.59229	0.983527	0.313475	0.0217754	-0.236094	0.538182	0.250569	0	0	-0.261025	-0.107995	-0.30075	0.282346	0.217952	0	0	-0.381395	0.150091	0.1011	0.320997	-0.381494	-0.158081	1.19536	1.5708	0	0	0.215088	-0.249938	-0.147048	1.27747	1.04647	0	0
2.27	2.66463	1.29355	-1.11528	0.87753	1.60118	0.982835	0.317276	0.0254124	-0.253129	0.505518	0.252257	0	0	-0.27166	-0.111314	-0.299509	0.280797	0.224346	0	0	-0.380601	0.155164	0.100508	0.32436	-0.381765	-0.158284	1.19432	1.5708	0	0	0.216478	-0.248982	-0.147466	1.27604	1.04784	0	0
2.28	2.65521	1.29267	-1.10306	0.877868	1.61013	0.98202	0.320149	0.0297167	-0.268852	0.471707	0.252768	0	0	-0.281583	-0.114988	-0.299225	0.280507	0.231736	0	0	-0.379502	0.160089	0.100089	0.326944	-0.382026	-0.157858	1.19436	1.5708	0	0	0.217494	-0.248243	-0.147694	1.27498	1.0478	0	0
2.29	2.64628	1.29154	-1.09101	0.878318	1.61918	0.981139	0.321206	0.0346893	-0.285045	0.436751	0.252606	0	0	-0.291606	-0.119195	-0.298926	0.281167	0.239665	0	0	-0.378732	0.165038	0.0998008	0.327457	-0.382385	-0.159655	1.20066	1.5708	0	0	0.218778	-0.247715	-0.147606	1.27385	1.04782	0	0
2.3	2.63898	1.29115	-1.08058	0.878907	1.62837	0.980121	0.321971	0.0394186	-0.301213	0.402457	0.252221	0	0	-0.301031	-0.122876	-0.298582	0.282238	0.247299	0	0	-0.377354	0.169155	0.0992493	0.327854	-0.383297	-0.160381	1.20801	1.5708	0	0	0.219792	-0.247478	-0.147829	1.27301	1.04762	0	0
